<?xml version="1.0" encoding="utf-8"?>
<!-- Generator: Adobe Illustrator 27.7.0, SVG Export Plug-In . SVG Version: 6.00 Build 0)  -->
<svg version="1.1" id="Layer_1" xmlns="http://www.w3.org/2000/svg" xmlns:xlink="http://www.w3.org/1999/xlink" x="0px"
	y="0px" viewBox="0 0 24 24" width="24" height="24" fill="currentColor" style="enable-background:new 0 0 24 24;"
	xml:space="preserve">
	<path d="M13.3,11.3h-0.2l0.7,4.1c0.5-0.2,0.9-0.4,1.3-0.8c-0.4-0.5-0.7-1-1-1.6l0.8-0.1c0.2,0.4,0.5,0.8,0.7,1.2
	c0.6-0.7,1-1.6,1.3-2.8C17.1,11.3,13.3,11.3,13.3,11.3z M16.3,14.7c0.4,0.4,0.9,0.7,1.5,0.8l0.4,0.1l-0.2,0.8l-0.4-0.1
	c-0.7-0.2-1.3-0.6-1.8-1c-0.5,0.4-1.1,0.8-1.7,1l0.5,2.8h-2.9l-0.4,1.8h9.3c0.4,0,0.8-0.4,0.8-0.8V6.6c0-0.4-0.4-0.8-0.8-0.8h-8.3
	l0.6,3.4l0,0l0.1,0.4l0-0.1l0.2,1h1.9V9.8h1.5v0.8h2.5v0.8h-1C17.5,12.7,17,13.8,16.3,14.7z M10.8,19H3.6C2.7,19,2,18.3,2,17.4V4
	c0-0.9,0.7-1.6,1.6-1.6h7.9L11.9,5h8.5C21.3,5,22,5.7,22,6.6V20c0,0.9-0.7,1.6-1.6,1.6H10.2L10.8,19z M7,12.9v-0.8H5.5v-1.2h1.4V10
	H5.5V9H7V8.2H4.6v4.7C4.6,12.9,7,12.9,7,12.9z M10.8,12.9v-2.4c0-0.4-0.1-0.8-0.3-1c-0.2-0.2-0.5-0.3-0.9-0.3c-0.2,0-0.4,0-0.6,0.1
	C8.9,9.4,8.8,9.6,8.7,9.7H8.6L8.5,9.3H7.8v3.6h0.9v-1.7c0-0.4,0.1-0.7,0.2-0.9C9,10.1,9.2,10,9.4,10c0.2,0,0.3,0.1,0.4,0.2
	c0.1,0.1,0.1,0.3,0.1,0.6v2.1H10.8z" />
</svg>